<svg id="Layer_1" data-name="Layer 1" xmlns="http://www.w3.org/2000/svg" viewBox="0 0 427.35 156.77"><defs><style>.cls-1{fill:#100f40;}</style></defs><rect class="cls-1" x="78.37" y="70.55" width="8.8" height="43.02" rx="2.79"/><rect class="cls-1" x="92.19" y="44.15" width="8.8" height="24.5" rx="2.79"/><rect class="cls-1" x="62.66" y="44.15" width="8.8" height="24.5" rx="2.79"/><rect class="cls-1" x="62.66" y="84.67" width="8.8" height="24.5" rx="2.79"/><rect class="cls-1" x="92.19" y="84.67" width="8.8" height="24.5" rx="2.79"/><rect class="cls-1" x="106.64" y="33.16" width="8.8" height="16.33" rx="2.79"/><rect class="cls-1" x="78.37" y="38.5" width="8.8" height="16.33" rx="2.79"/><rect class="cls-1" x="47.8" y="33.16" width="8.8" height="16.33" rx="2.79"/><rect class="cls-1" x="106.64" y="64.73" width="8.8" height="54.5" rx="2.79"/><rect class="cls-1" x="47.8" y="64.73" width="8.8" height="54.5" rx="2.79"/><rect class="cls-1" x="62.66" y="71.25" width="8.8" height="9.66" rx="2.79"/><rect class="cls-1" x="47.8" y="52.28" width="8.8" height="9.66" rx="2.79"/><rect class="cls-1" x="78.37" y="56.4" width="8.8" height="9.42" rx="2.79"/><rect class="cls-1" x="92.19" y="71.36" width="8.8" height="9.42" rx="2.79"/><rect class="cls-1" x="106.64" y="52.4" width="8.8" height="9.42" rx="2.79"/><path class="cls-1" d="M161.37,100.09V69L149.29,89a1.94,1.94,0,0,1-2.12.87,1.32,1.32,0,0,1-.44,0,2,2,0,0,1-1.68-.92L133,69v31.07a2,2,0,1,1-3.92,0V67.17A3.27,3.27,0,0,1,132.53,64a3.75,3.75,0,0,1,2,.6,1.87,1.87,0,0,1,.93.76l11.75,19.59L158.86,65.6a1.89,1.89,0,0,1,.55-.6,3.56,3.56,0,0,1,2.5-1,3.31,3.31,0,0,1,3.43,3.21v32.92a2,2,0,0,1-2,2A2,2,0,0,1,161.37,100.09Z"/><path class="cls-1" d="M194,75.61A1.92,1.92,0,0,1,194.5,77V95.68a6.28,6.28,0,0,1-6.36,6.26H177.58a6.37,6.37,0,0,1-6.42-6.26V77a2,2,0,0,1,3.92,0V95.68a2.51,2.51,0,0,0,2.5,2.34h10.5a2.47,2.47,0,0,0,2.51-2.34V77a2,2,0,0,1,1.95-2A2.16,2.16,0,0,1,194,75.61Z"/><path class="cls-1" d="M221.82,99.93a2,2,0,0,1-2,2H200.44a2.08,2.08,0,0,1-1.8-1.14,1.91,1.91,0,0,1,.33-2.13l16.64-19.58H200.76a2,2,0,1,1,0-3.92h19.1a2,2,0,0,1,1.79,1.14,1.82,1.82,0,0,1-.32,2.07L204.68,98h15.18A2,2,0,0,1,221.82,99.93Z"/><path class="cls-1" d="M230,65.92v.82a2,2,0,0,1-3.92,0v-.82a2,2,0,1,1,3.92,0Zm0,11.21V100a2,2,0,1,1-3.92,0V77.13a2,2,0,1,1,3.92,0Z"/><path class="cls-1" d="M258.21,98.67a2,2,0,0,1-1.52,3.27,1.89,1.89,0,0,1-1.47-.76L244.12,87.9l-4.51,3.21v8.82a2,2,0,0,1-3.92,0V65.87a2,2,0,1,1,3.92,0v20.4L255.55,75a2.13,2.13,0,0,1,1.14-.33,1.94,1.94,0,0,1,1.14,3.54l-10.5,7.45Z"/><path class="cls-1" d="M300.3,100.63V65.92a2,2,0,0,1,1.42-1.9,2,2,0,0,1,2.17.81L323.42,94.1V66a2,2,0,1,1,3.92,0v34.65a1.86,1.86,0,0,1-1.41,1.85,1.91,1.91,0,0,1-2.18-.76L304.22,72.4v28.23a2,2,0,0,1-3.92,0Z"/><path class="cls-1" d="M353.78,65.27a2,2,0,0,1-2,2H342.2a2,2,0,0,0-2,2V75.4h6.31a2,2,0,1,1,0,3.91h-6.31V100a2,2,0,0,1-3.92,0V69.24a5.9,5.9,0,0,1,5.88-5.93h9.62A2,2,0,0,1,353.78,65.27Z"/><path class="cls-1" d="M369.29,99.93a2,2,0,0,1-2,1.95h-3.48A5.92,5.92,0,0,1,358,96V79.2h-4.79a2,2,0,0,1-2-2,2,2,0,0,1,2-2H358V65.87a2,2,0,1,1,3.92,0v9.36h5.33a2,2,0,0,1,2,2,2,2,0,0,1-2,2H362L362,96a1.92,1.92,0,0,0,1.85,2h3.48A2,2,0,0,1,369.29,99.93Z"/><path class="cls-1" d="M292.16,97h-23.3c-2.13-2.32-3.1-4.48-2.88-6.45a6.85,6.85,0,0,1,2.65-4.29h22l.64-.64c3.56-3.56,5.15-7.17,4.73-10.71-.58-5-4.95-7.68-5.14-7.8l-.52-.32H265.52a2.18,2.18,0,0,0,0,4.36H289a6.79,6.79,0,0,1,2.65,4.27c.23,2-.74,4.15-2.88,6.47h-21.5l-.52.33c-.19.11-4.55,2.84-5.14,7.79-.42,3.54,1.18,7.15,4.74,10.71l.64.64h25.13a2.18,2.18,0,0,0,0-4.36Z"/></svg>